<svg xmlns="http://www.w3.org/2000/svg" width="17.961" height="20.527" viewBox="0 0 17.961 20.527">
  <path id="ic-awesome-trash-alt" d="M1.283,18.6a1.924,1.924,0,0,0,1.924,1.924H14.754A1.924,1.924,0,0,0,16.678,18.6V5.132H1.283ZM12.188,8.339a.641.641,0,0,1,1.283,0V17.32a.641.641,0,0,1-1.283,0Zm-3.849,0a.641.641,0,1,1,1.283,0V17.32a.641.641,0,0,1-1.283,0Zm-3.849,0a.641.641,0,0,1,1.283,0V17.32a.641.641,0,0,1-1.283,0ZM17.32,1.283H12.509l-.377-.75A.962.962,0,0,0,11.27,0H6.687a.951.951,0,0,0-.858.533l-.377.75H.641A.641.641,0,0,0,0,1.924V3.207a.641.641,0,0,0,.641.641H17.32a.641.641,0,0,0,.641-.641V1.924A.641.641,0,0,0,17.32,1.283Z" fill="#ef6351"/>
</svg>
