<svg xmlns="http://www.w3.org/2000/svg" width="45" height="44.621" viewBox="0 0 45 44.621"><g transform="translate(-4 -4)"><path d="M48.562,21.941H46.75v-.093H26.5v8.924H39.216a13.427,13.427,0,1,1-3.76-14.458L41.82,10A22.514,22.514,0,0,0,4,26.31a22.5,22.5,0,0,0,45,0A22.279,22.279,0,0,0,48.562,21.941Z" transform="translate(0 0)" fill="#ffc107"/><path d="M6.306,15.926l7.33,5.376a13.359,13.359,0,0,1,21.289-4.987L41.235,10A22.267,22.267,0,0,0,6.306,15.926Z" transform="translate(0.266 0)" fill="#ff3d00"/><path d="M26.057,45.842A22.206,22.206,0,0,0,41.015,40.05L34.11,34.207A13.352,13.352,0,0,1,13.47,28.054L6.2,33.659A22.293,22.293,0,0,0,26.057,45.842Z" transform="translate(0.254 2.779)" fill="#4caf50"/><path d="M45.876,20.093h-1.8V20H24v8.924H36.609a13.431,13.431,0,0,1-4.559,6.215l0,0,6.905,5.843A21.582,21.582,0,0,0,46.31,24.462,22.462,22.462,0,0,0,45.876,20.093Z" transform="translate(2.69 1.848)" fill="#1976d2"/></g></svg>