<?xml version="1.0" encoding="utf-8"?>
<!-- Generator: Adobe Illustrator 23.0.5, SVG Export Plug-In . SVG Version: 6.00 Build 0)  -->
<!DOCTYPE svg PUBLIC "-//W3C//DTD SVG 1.1//EN" "http://www.w3.org/Graphics/SVG/1.1/DTD/svg11.dtd" [
	<!ENTITY ns_extend "http://ns.adobe.com/Extensibility/1.0/">
	<!ENTITY ns_ai "http://ns.adobe.com/AdobeIllustrator/10.0/">
	<!ENTITY ns_graphs "http://ns.adobe.com/Graphs/1.0/">
	<!ENTITY ns_vars "http://ns.adobe.com/Variables/1.0/">
	<!ENTITY ns_imrep "http://ns.adobe.com/ImageReplacement/1.0/">
	<!ENTITY ns_sfw "http://ns.adobe.com/SaveForWeb/1.0/">
	<!ENTITY ns_custom "http://ns.adobe.com/GenericCustomNamespace/1.0/">
	<!ENTITY ns_adobe_xpath "http://ns.adobe.com/XPath/1.0/">
]>
<svg version="1.1" id="Layer_1" xmlns:x="&ns_extend;" xmlns:i="&ns_ai;" xmlns:graph="&ns_graphs;"
	 xmlns="http://www.w3.org/2000/svg" xmlns:xlink="http://www.w3.org/1999/xlink" x="0px" y="0px" viewBox="0 0 800 600"
	 style="enable-background:new 0 0 800 600;" xml:space="preserve">
<style type="text/css">
	.st0{fill:#FBB040;stroke:#000000;stroke-miterlimit:10;}
	.st1{stroke:#000000;stroke-miterlimit:10;}
</style>
<metadata>
	<sfw  xmlns="&ns_sfw;">
		<slices></slices>
		<sliceSourceBounds  bottomLeftOrigin="true" height="298.1" width="523" x="139.1" y="-419.1"></sliceSourceBounds>
	</sfw>
</metadata>
<circle class="st0" cx="270" cy="300" r="100"/>
<circle class="st0" cx="530" cy="300" r="100"/>
<circle class="st1" cx="270" cy="300" r="50"/>
<circle class="st1" cx="530" cy="300" r="50"/>
<path class="st1" d="M140.3,123.5c12.1,17.5,43.3,33.8,65,40.5c119.2,36.9,174.3,84.1,186.8,125.6c3.9,12.9,9,36.4,9.8,55
	c1,23-0.4,34.9-0.5,45.9c-0.1,6.7-0.4,16.3-1.2,27.8c0,0.3-0.4,0.3-0.5,0.1c-2.5-7-24.8-59.4-29.6-72.8
	c-35.8-99.4-131-138.5-173.9-154.1C159.7,178.3,153.3,175,140.3,123.5z"/>
<path class="st1" d="M661,123.5c-12.1,17.5-43.3,33.8-65,40.5c-119.2,36.9-174.3,84.1-186.8,125.6c-3.9,12.9-9,36.4-9.8,55
	c-1,23,0.4,34.9,0.5,45.9c0.1,6.7,0.4,16.3,1.2,27.8c0,0.3,0.4,0.3,0.5,0.1c2.5-7,24.8-59.4,29.6-72.8
	c35.8-99.4,131-138.5,173.9-154.1C641.5,178.3,648,175,661,123.5z"/>
</svg>
