<svg xmlns="http://www.w3.org/2000/svg" width="184.995" height="335.792" viewBox="0 0 184.995 335.792"><g transform="translate(49.736 173.371)"><path d="M343.042,328.568s1.816-6.9-2.907-11.262S262.7,300.68,262.7,300.68l-15.207,26.8Z" transform="translate(-246.033 -300.68)" fill="#1b73f0"/><g transform="translate(0 20.776)"><line x2="11.495" y2="128.576" transform="translate(95.155 7.112)" fill="none" stroke="#2e53bc" stroke-miterlimit="10" stroke-width="3.367"/><path d="M257.193,456.59l7.853-133.774-5.952-3.268L246.167,440.465" transform="translate(-246.167 -319.547)" fill="none" stroke="#2e53bc" stroke-miterlimit="10" stroke-width="3.367"/><path d="M344.175,358.34s5.533,16.111-1.691,18.013-74.14,4.942-84.025-1.522-4.583-22.865-4.583-22.865" transform="translate(-245.531 -316.268)" fill="none" stroke="#2e53bc" stroke-miterlimit="10" stroke-width="3.367"/><path d="M341.4,344.154l-78.7-1.521-7.021-7" transform="translate(-245.205 -317.92)" fill="none" stroke="#2e53bc" stroke-miterlimit="10" stroke-width="3.367"/></g></g><g transform="translate(85.423)"><g transform="translate(0 41.714)"><path d="M289.609,189.866s1.313,5.029.656,7.872-11.69,4.081-11.69,4.081l26.354,36.27,18.356-33.353-5.043-11.1-3.7-.494-1.75-12.028Z" transform="translate(-278.575 -181.118)" fill="#ff8bb7"/><path d="M296.634,234.143c2.272.723,4.756.157,6.989-.657a31.516,31.516,0,0,0,17.536-16.554,29.772,29.772,0,0,0,2.1-6.452c.139-.686.25-1.381.343-2.076a23.416,23.416,0,0,0,.1-5.4v-.01a17.208,17.208,0,0,0-.287-1.836,14.717,14.717,0,0,0-1.538-4.235,13.482,13.482,0,0,0-8.3-6.164A6.566,6.566,0,0,0,310,192.833a7.859,7.859,0,0,0-1.288,4,26.212,26.212,0,0,0,.594,8.75,1.51,1.51,0,0,0,2.873.213c.315-.815,2.688.6,2.419,2.039-.537,2.874-2.2,5.4-3.893,7.786-2.067,2.91-4.291,5.8-6.257,8.815a8.03,8.03,0,0,1-10.557,2.724,3.982,3.982,0,0,0-.806,1.548C292.492,231.02,294.364,233.421,296.634,234.143Z" transform="translate(-277.118 -180.143)" fill="#f2649e"/></g><path d="M287,187.577l20.906-1.015a8.2,8.2,0,0,1-1.423,10.939C300.9,202.8,287,187.577,287,187.577Z" transform="translate(-277.723 -138.854)" fill="#f2649e"/><path d="M299.94,152.771c-.82.142-17.721.341-19.037,11.855s-.031,34.485,11.185,33.555,15.809-4.506,19.117-8.684,10.044-10.476,9.888-17.006S314.378,150.269,299.94,152.771Z" transform="translate(-278.382 -142.299)" fill="#ff8bb7"/><path d="M299.266,163.707c.97.858,2.347,1.021,3.586,1.4a10.03,10.03,0,0,1,6.521,6.383,3.655,3.655,0,0,1,5.126-1.613,4.721,4.721,0,0,1,1.847,5.373,6.746,6.746,0,0,1-4.237,4.125c-.878.316-1.9.558-2.37,1.364-.524.9-.087,2.037.356,2.982q1.259,2.691,2.516,5.382a1.4,1.4,0,0,0,.437.611c.44.292,1.016.013,1.5-.21a6.586,6.586,0,0,1,4.891-.24,5.79,5.79,0,0,0,2.712.677,3.09,3.09,0,0,0,2.2-2.366c.315-1.092.328-2.258.682-3.339.835-2.551,3.349-4.122,4.921-6.3,3.045-4.212,2.075-10.413-1.19-14.457-1.2-1.492-2.722-2.843-3.259-4.683-.8-2.757.73-6.167-1.106-8.375-1.94-2.332-5.995-1.256-8.354-3.165-1.405-1.136-2.036-3.215-3.732-3.84-2.7-.994-5.043,2.491-7.907,2.784-2.934.3-5.6-2.831-8.438-2.029-1.772.5-2.891,2.41-4.679,2.851-1.563.384-3.205-.462-4.794-.206-2.127.345-3.431,2.483-4.292,4.46a43.4,43.4,0,0,0-3.59,16.656c-.012.864.241,2,1.1,2.06a1.423,1.423,0,0,0,1.013-.457c1.266-1.173,1.527-3.036,1.907-4.72s1.171-3.545,2.823-4.042c.7-.21,1.452-.137,2.158-.318,2.347-.6,3.741-3.688,6.385-2.668C296.692,158.825,297.333,162,299.266,163.707Z" transform="translate(-278.572 -143.236)" fill="#6478ff"/><path d="M305.156,169.391s3.047-6.532,9.24-5.127,3.634,11.948-5.414,16.35S305.156,169.391,305.156,169.391Z" transform="translate(-276.038 -141.129)" fill="#ff8bb7"/></g><g transform="translate(0 50.768)"><g transform="translate(0 112.603)"><path d="M240.851,296.91c-2.221.189-4.629.529-6.183,2.127a8.056,8.056,0,0,0-1.866,4.292,13.1,13.1,0,0,0,.361,6.848,7.237,7.237,0,0,0,4.814,4.613,11.622,11.622,0,0,0,3.8.07l13.784-1.264c2.908-.266,6.185-.734,7.893-3.1,3.158-4.384-.882-11.067-5.136-13.162C253.588,295,245.86,296.482,240.851,296.91Z" transform="translate(-197.811 -291.148)" fill="#ff8bb7"/><path d="M203.059,315.033a26.849,26.849,0,0,1,16.829-12.348c2.316-.511,4.826-.68,6.738-2.084a17.7,17.7,0,0,0,2.871-3.144,15.64,15.64,0,0,1,10.813-5.843c3.645-.2,9.006,1.7,10.233,5.521a19.635,19.635,0,0,0-10.19,2.362c-2.168,3.337-.8,8.207,1.367,11.481.556.842,2,2.893,2.054,3.9.1,1.929-2.688,2.042-4.411,2.917l-11.369,5.773c-5.253,2.668-10.7,5.39-16.582,5.705a12.286,12.286,0,0,1-6.768-1.318,6.944,6.944,0,0,1-3.5-4.869C200.735,322.114,201.135,318.234,203.059,315.033Z" transform="translate(-201 -291.599)" fill="#001a49"/><path d="M203.059,315.033a26.849,26.849,0,0,1,16.829-12.348c2.316-.511,4.826-.681,6.738-2.085a17.7,17.7,0,0,0,2.871-3.144,15.64,15.64,0,0,1,10.813-5.843,12.55,12.55,0,0,1,8.266,2.7,18.978,18.978,0,0,1-9.456,3.4c-2.2.16-4.567-.034-6.458,1.106-1.469.884-2.394,2.429-3.65,3.594-4.767,4.419-13.5,2.834-17.384,8.045a4.088,4.088,0,0,0-.879,2.051c-.145,1.744,1.295,3.153,2.443,4.474a18.352,18.352,0,0,1,4.358,11.138,25.57,25.57,0,0,1-6.141,1.149,12.286,12.286,0,0,1-6.768-1.318,6.944,6.944,0,0,1-3.5-4.869C200.735,322.114,201.135,318.234,203.059,315.033Z" transform="translate(-201 -291.599)" fill="#fff"/><g transform="translate(26.874 18.994)"><path d="M225.431,313.807a.96.96,0,1,0,1.155-.715A.96.96,0,0,0,225.431,313.807Z" transform="translate(-225.405 -308.421)" fill="#c9dfff"/><path d="M229.61,311.9a.96.96,0,1,0,1.155-.715A.96.96,0,0,0,229.61,311.9Z" transform="translate(-224.983 -308.613)" fill="#c9dfff"/><path d="M234.169,308.873a.96.96,0,1,0,.715,1.156A.96.96,0,0,0,234.169,308.873Z" transform="translate(-224.638 -308.848)" fill="#c9dfff"/></g><g transform="translate(24.892 13.72)"><path d="M223.631,309.017a.96.96,0,1,0,1.155-.715A.96.96,0,0,0,223.631,309.017Z" transform="translate(-223.605 -303.632)" fill="#c9dfff"/><path d="M227.81,307.114a.96.96,0,1,0,1.155-.715A.96.96,0,0,0,227.81,307.114Z" transform="translate(-223.183 -303.824)" fill="#c9dfff"/><path d="M232.371,304.084a.96.96,0,1,0,.714,1.154A.959.959,0,0,0,232.371,304.084Z" transform="translate(-222.838 -304.058)" fill="#c9dfff"/></g></g><g transform="translate(64.873 206.206)"><path d="M308.212,395.6a10.372,10.372,0,0,1-.555,4.377c-.949,2.254-3.2,3.659-5.423,4.683s-4.607,1.858-6.38,3.542c-1.561,1.484-2.5,3.5-3.863,5.167a19.53,19.53,0,0,1-4.84,4.037c-7.225,4.544-24.591,5.556-26.528,1.1-2.757-6.342,3.11-8.449,7.51-12.762s9.753-7.547,14.212-11.8a8,8,0,0,0,2.029-2.639c.955-2.34-.225-4.959-1.417-7.186a5.2,5.2,0,0,1-.718-1.9,4.123,4.123,0,0,1,1.821-3.371c3.82-3.08,9.564-2.774,13.875-.432s7.454,6.345,10.194,10.416" transform="translate(-259.913 -376.602)" fill="#001a49"/><path d="M266.175,405.962a26.2,26.2,0,0,1,8.589,9.316c6.495-2.581,13.321-5.409,17.534-10.985,1.65-2.183,2.812-4.69,4.322-6.971s3.488-4.415,6.085-5.275a9.624,9.624,0,0,1,5.381-.065c.053.7.1,1.4.125,2.1a10.372,10.372,0,0,1-.555,4.377c-.949,2.254-3.2,3.659-5.423,4.682s-4.607,1.859-6.38,3.544c-1.561,1.484-2.5,3.5-3.863,5.167a19.53,19.53,0,0,1-4.84,4.037c-7.225,4.544-24.591,5.556-26.528,1.1C258.261,411.554,262.225,409.227,266.175,405.962Z" transform="translate(-259.913 -375.082)" fill="#fff"/><g transform="translate(17.057 19.962)"><path d="M275.4,401.538a.96.96,0,1,0,.96-.96A.96.96,0,0,0,275.4,401.538Z" transform="translate(-275.403 -394.138)" fill="#c9dfff"/><path d="M279.507,399.076a.96.96,0,1,0,.96-.96A.96.96,0,0,0,279.507,399.076Z" transform="translate(-274.988 -394.387)" fill="#c9dfff"/><path d="M282.775,394.73a.961.961,0,1,0,.96.961A.961.961,0,0,0,282.775,394.73Z" transform="translate(-274.754 -394.73)" fill="#c9dfff"/></g></g><path d="M241.835,317.578a20.475,20.475,0,0,0-.98,23.183c1.87,2.983,3.62,5.674,4.493,6.75,13.6,16.786,31.2,31.653,37.2,52.405a4.988,4.988,0,0,0,1.095,2.28,4.424,4.424,0,0,0,2.113.936,26.678,26.678,0,0,0,25.359-8.314c-4.634-17.842-16.2-32.459-29.744-44.981-2.789-2.577-5.691-5.135-7.665-8.37s-2.919-7.368-1.482-10.881c1.213-2.975,3.781-4.922,6.692-6.461,1.687-.908,3.494-1.668,5.218-2.41A101.686,101.686,0,0,0,305.409,309.2c2.187-1.678,4.458-3.718,4.772-6.452.344-2.965-1.872-5.746-4.587-6.988s-5.8-1.252-8.777-1.131a113.217,113.217,0,0,0-22.718,3.29l4.069-1.326c-2.336.677-4.69,1.362-7.034,2.1a113.936,113.936,0,0,0-12.124,4.124l4.681-1.52a52.369,52.369,0,0,0-14.552,8.231,31.192,31.192,0,0,0-3.161,3.012C244.543,314.107,243.143,315.838,241.835,317.578Z" transform="translate(-197.285 -178.695)" fill="#c9dfff"/><path d="M264.864,325.343c5.086,1.478,7.856.026,13.009-1.216,1.687-.908,3.494-1.668,5.218-2.41A101.685,101.685,0,0,0,304.373,309.2c2.187-1.678,4.458-3.718,4.772-6.452.344-2.965-1.872-5.746-4.587-6.988s-5.8-1.252-8.777-1.131a113.217,113.217,0,0,0-22.718,3.29l4.069-1.326c-2.336.677-4.69,1.362-7.034,2.1a113.929,113.929,0,0,0-12.124,4.124l4.681-1.52a52.369,52.369,0,0,0-14.552,8.231C246.99,310.446,252.85,321.85,264.864,325.343Z" transform="translate(-196.248 -178.695)" fill="#b6d7ff"/><g transform="translate(36.266)"><path d="M236.1,271.511c-1.337,2.243-2.722,4.849-1.928,7.337a5.778,5.778,0,0,0,4.176,3.614,10.348,10.348,0,0,0,5.678-.432,21.906,21.906,0,0,0,10.833-8.577,43.933,43.933,0,0,0,5.67-12.8c.766-2.627,1.386-5.563.154-8.007-2.7-5.347-10.953-4.219-13.916.163C242.83,258.623,239.716,265.437,236.1,271.511Z" transform="translate(-233.935 -183.299)" fill="#ff8bb7"/><path d="M242.748,263.366c2.233,2.409,11.8,5.135,15.83,6.146h.01a16.257,16.257,0,0,0,1.788.389,12.66,12.66,0,0,0,1.928-2.753c3.216-5.765,6.645-16.508,6.266-12.707-.436,4.431-1.548,35.443,4.014,37.8a1.658,1.658,0,0,0,.592.139l53.611,3.809,12.448-13.245,1.186-1.261c-.222-5.441-.361-12.04.537-16.433.094-.473.176-.973.251-1.5.028-.26.065-.529.084-.8s.055-.546.074-.825q.041-.459.055-.946c.029-.38.037-.76.046-1.149.047-1.557.01-3.179-.064-4.783-.019-.445-.047-.9-.075-1.343-.084-1.353-.185-2.679-.315-3.9-.019-.194-.037-.38-.056-.565s-.036-.362-.055-.537v-.01c-.019-.185-.037-.37-.065-.556s-.037-.361-.055-.537c-.056-.529-.121-1.029-.186-1.492-.009-.139-.028-.26-.046-.39q-.069-.57-.139-1.056c-.027-.186-.046-.352-.074-.51-.1-.742-.176-1.206-.195-1.307l4.291,11.474s2.169-.907,5.08-1.918c5.311-1.853,13.087-4.069,14.681-1.836a59.313,59.313,0,0,0,1.326-6.219,63.1,63.1,0,0,0-.76-23.875,8.24,8.24,0,0,0-.279-1.261c-.027-.1-.065-.195-.092-.287-.306-1.177-.621-2.344-.991-3.5l-4.1-4.514c.028.315.065.631.092.946-5.246-4.459-13.171-6.97-19.51-9.287a50.735,50.735,0,0,1-6.386-2.688c-.409-.222-.826-.436-1.223-.64a61.383,61.383,0,0,0-9.408-3.856c.13,2.077.537,4.152.714,6.211a15.407,15.407,0,0,1-.12,4.329c-.537,2.873-2.2,5.4-3.893,7.785-2.067,2.91-4.292,5.8-6.257,8.815a8.032,8.032,0,0,1-10.557,2.725,7.848,7.848,0,0,1-3.1-3.013,87.25,87.25,0,0,1-4.467-8.666,54.344,54.344,0,0,1-4.134-13.978,3.075,3.075,0,0,0-4.133-2.446c-9.471,3.59-22.085,8.644-25.508,11.344-5.672,4.477-17.091,50.033-19.019,53.259C242.127,262.392,242.274,262.865,242.748,263.366Z" transform="translate(-233.092 -188.71)" fill="#ffb000"/><path d="M266.781,250.594c-.436,4.431-1.548,35.443,4.014,37.8a63.372,63.372,0,0,0,3.309-10.224,82.747,82.747,0,0,0,2.734-15.664c.435-7.915-1-15.812-2.447-23.607-.334-1.836-.826-3.894-2.438-4.82a4.371,4.371,0,0,0-3.049-.38c-4.31.834-6.758,5.422-7.87,9.676-1.788,6.784-.917,13.152-.519,19.928C263.732,257.537,267.16,246.794,266.781,250.594Z" transform="translate(-231.303 -184.864)" fill="#ff9700"/><path d="M321.985,213.791c3.744,10.084,4.6,20.975,5.255,31.708.612,9.992.715,20.029,1.409,30.012.269,3.809,1.511,6.331,3.022,7.359l1.186-1.261c-.222-5.441-.361-12.04.537-16.433,1.53-7.518-.714-21.56-.815-22.208l4.291,11.474s2.169-.907,5.08-1.918c.12-.77.24-1.548.37-2.317.51-3.179,1.02-6.442.334-9.585-.991-4.6-4.365-8.24-6.6-12.374-3.087-5.718-3.966-12.336-6.173-18.453s-6.459-12.226-12.827-13.523C316.775,202.381,319.862,208.053,321.985,213.791Z" transform="translate(-225.528 -188.639)" fill="#ff9700"/><path d="M311.261,204.491a1.51,1.51,0,0,0,2.873.214,3.648,3.648,0,0,1,1.4-2,2.309,2.309,0,0,1,1.14-.287,4.027,4.027,0,0,1,.825.046,6.111,6.111,0,0,1,.825.167,8.124,8.124,0,0,1,3.579,1.9,13.35,13.35,0,0,1,3.308,4.857,31.071,31.071,0,0,1,1.576,5.5c2.169,10.483,2.41,21.43,6,31.523.371,1.048.779,2.086,1.215,3.105v.01a120.619,120.619,0,0,0,7.545,14.107c1.733,2.928,3.939,6.163,7.313,6.562a7.944,7.944,0,0,0,5.33-1.622c4.7-3.29,6.822-9.426,6.432-15.145a26.8,26.8,0,0,0-2-8.259,46.264,46.264,0,0,0-4.078-7.646c-3.115-4.82-6.8-9.25-9.826-14.126-3.708-6-6.887-12.374-10.807-18.25a10.509,10.509,0,0,1-.927-1.761c-1.261-2.874-2.039-6.655-4.18-8.462a31.167,31.167,0,0,0-8.138-5.117,8.481,8.481,0,0,0-5.136-.148,6.554,6.554,0,0,0-3.568,2.076,7.859,7.859,0,0,0-1.288,4A26.178,26.178,0,0,0,311.261,204.491Z" transform="translate(-226.186 -189.34)" fill="#ff8bb7"/></g><g transform="translate(51.764 80.197)"><path d="M372.051,276.255c.068,5.784-2.766,11.258-6.413,15.75s-8.122,8.229-12.116,12.416c-4.56,4.78-8.545,10.193-13.858,14.119a33.6,33.6,0,0,1-36.414,1.7,17.233,17.233,0,0,1-6.706-6.593c-3.509-6.886.8-15.565,7.112-20.022s14.151-6,21.455-8.526c10.581-3.659,20.22-9.5,29.466-15.718,3.92-2.638,7.525-7.379,12.019-4.441C370.125,267.243,372,272.205,372.051,276.255Z" transform="translate(-243.225 -261.984)" fill="#a5cff9"/><path d="M367.979,262.572c-7.06-1.579-14.169,1.795-20.71,4.885-31.138,14.712-65.259,23.151-99.261,28.618,3.65,10.638,2.639,17.254,10.9,24.883,14.539,1.4,34.9.936,46.487-4.711,7.495-3.651,14.434-8.436,22.164-11.559,7.077-2.86,14.652-4.259,21.9-6.644s14.446-5.979,19.023-12.089S372.558,268.679,367.979,262.572Z" transform="translate(-248.008 -262.17)" fill="#c9dfff"/></g></g><g transform="translate(5.475 129.999)"><path d="M214.705,266.72l45.786,13.694-24.484,7.331-11.9-6.778Z" transform="translate(-205.088 -260.744)" fill="#f2f2f2"/><path d="M212.946,262.323l42.76,13.831-23.722,8.552Z" transform="translate(-205.266 -261.188)" fill="#f2f2f2"/><path d="M269.6,274.811l.491,4.421s-17.359.655-24.238,3.112a44.658,44.658,0,0,0-11.463,6.059l-5.077-2.129-2.784-2.948s-1.146-8.352-6.715-8.843-9.826-12.446-9.826-12.446h3.93a30.55,30.55,0,0,0,4.913,6.387c2.457,2.13,7.206,3.44,9.5,7.7a40.981,40.981,0,0,0,3.93,6.224l2.785,1.146a25.688,25.688,0,0,1,13.265-6.387C256.825,275.629,269.6,274.811,269.6,274.811Z" transform="translate(-205.566 -261.217)" fill="#fff"/><path d="M208.428,261.293l-2.457.327,23.255,26.366,2.784-.328Z" transform="translate(-205.972 -261.293)" fill="#ff5d00"/></g><path d="M268.406,274.2l-36.259,12.973,18.669,7.861L304.2,284.224Z" transform="translate(-197.849 -129.988)" fill="#ff5d00"/><path d="M225.538,284.038c-.872-.955.088-2.934,1.247-3.02s2.158.935,3.026,1.9l4.413,4.894a3.764,3.764,0,0,0,1.439,1.156,3.069,3.069,0,0,0,1.723-.1,103.492,103.492,0,0,1,13.789-2.475c2.507-.276,5.173-.422,7.389,1.067a8.34,8.34,0,0,1-3.484,5.107,15.161,15.161,0,0,1-5.257,2.034,67.584,67.584,0,0,1-14.117,1.763,7.483,7.483,0,0,1-3.918-.684,9.387,9.387,0,0,1-3.191-3.79Z" transform="translate(-198.552 -129.299)" fill="#ff8bb7"/><path d="M384.073,436.006c0,8.237-36.729,14.914-82.037,14.914S220,444.243,220,436.006s36.729-14.915,82.037-14.915S384.073,427.768,384.073,436.006Z" transform="translate(-199.078 -115.128)" fill="#1b73f0" opacity="0.2"/></svg>