<svg xmlns="http://www.w3.org/2000/svg" width="204.816" height="253.104" viewBox="0 0 204.816 253.104"><path d="M602.816,274c0,12.176-45.85,22.047-102.408,22.047S398,286.179,398,274s45.849-22.049,102.408-22.049S602.816,261.826,602.816,274Z" transform="translate(-398 -42.947)" fill="#1b73f0" opacity="0.2"/><path d="M513.953,117.084c-3.205-9.276-5.912-19.694-5.455-28.713v0c.235-3.714.27-6.985.458-9.015.994-10.748-6.837-14.965-9.658-15.233s-5.325-2.26-14.7-1.935c-8.972.312-15.128,6.706-16.828,15.558-1.372,7.147-.507,11.41.823,17.586.072,1.825.148,9.071-2.827,14.153-3.426,5.855-8.1,6.887-8.3,20.853s56.482,4.794,56.482,4.794A29.642,29.642,0,0,0,513.953,117.084Z" transform="translate(-391.984 -62.149)" fill="#ff5d00"/><g transform="translate(49.805 222.644)"><path d="M459.57,269.035a6.206,6.206,0,0,0-1.131,2.621,18,18,0,0,0,.178,8.7,1.711,1.711,0,0,0,.479.916,1.742,1.742,0,0,0,.994.29,31.708,31.708,0,0,0,10.828-1.057,1.637,1.637,0,0,0,.834-.424,1.69,1.69,0,0,0,.29-1.045q.17-3.505.341-7.009a5.863,5.863,0,0,0-.1-1.8C471.186,266.127,461.808,266.334,459.57,269.035Z" transform="translate(-441.736 -264.063)" fill="#fcb4d2"/><path d="M455.424,283.878c-2.74,1.971-7.088,3.981-10.291,2.917a2.716,2.716,0,0,1-1.644-1.24,3.423,3.423,0,0,1-.255-1.5,42.251,42.251,0,0,1,2.016-13.495c.826-2.571,2.256-5.381,4.887-5.994a12.776,12.776,0,0,1,8.56,1.4c4.042,2.483,14.165.777,14.651,1.032,1.146.6,1.461,6.813.987,8.015-1.294,3.278-5.331,4.589-8.525,4.99A20.368,20.368,0,0,0,455.424,283.878Z" transform="translate(-443.229 -264.339)" fill="#d38c0d"/><path d="M451.8,264.362a9.315,9.315,0,0,0-1.667.206c-2.631.612-4.061,3.422-4.887,5.994a42.251,42.251,0,0,0-2.016,13.495,3.423,3.423,0,0,0,.255,1.5,2.716,2.716,0,0,0,1.644,1.24c1.973.655,4.383.142,6.582-.808a34.736,34.736,0,0,0,2.052-8.342A25.481,25.481,0,0,0,451.8,264.362Z" transform="translate(-443.229 -264.336)" fill="#ffb000"/></g><g transform="translate(27.208 4.441)"><path d="M475.291,118.793c12.254-.309,24.585-.614,36.7,1.222,4.089.62,8.267,1.536,11.65,3.915,6.327,4.45,8.364,12.794,9.5,20.446.8,5.357,1.381,10.744,1.964,16.129a24.535,24.535,0,0,1-.011,8.005c-.761,3.392-2.915,6.284-5.124,8.968-6.891,8.377-15.053,15.983-24.926,20.477s-21.652,5.576-31.549,1.136a60.274,60.274,0,0,1-9.7-5.889c-3.792-2.655-7.651-5.425-10.227-9.272a31.87,31.87,0,0,1-3.825-9.014c-3.125-10.823-4.213-22.453-2.027-33.563,1.35-6.864.382-13.816,7.082-17.326A53.162,53.162,0,0,1,475.291,118.793Z" transform="translate(-420.294 -60.883)" fill="#c9dfff"/><g transform="translate(44.496 1.974)"><path d="M478.76,108.56,476.9,125.915s10.14,4.935,19.486,0l-1.856-21.056Z" transform="translate(-461.721 -64.243)" fill="#fcb4d2"/><path d="M478.63,108.56l-.437,5.041c1.993.958,4.645,1.735,6.756.255,2.8-1.962,5.8-3.719,9.937-2.51l-.48-6.488Z" transform="translate(-461.591 -64.243)" fill="#ea5e89"/><path d="M486.917,114.479h0a15.412,15.412,0,0,1-15.368-15.367V83.341a15.412,15.412,0,0,1,15.368-15.367h0a15.412,15.412,0,0,1,15.367,15.367V99.113A15.412,15.412,0,0,1,486.917,114.479Z" transform="translate(-462.263 -67.974)" fill="#fcb4d2"/><path d="M475.233,89.358s-4.853-5.055-10.11-1.82.4,12.131,10.11,13.345S475.233,89.358,475.233,89.358Z" transform="translate(-463.116 -66.104)" fill="#fcb4d2"/><path d="M497.782,89.358s4.853-5.055,10.11-1.82-.4,12.131-10.11,13.345S497.782,89.358,497.782,89.358Z" transform="translate(-460.046 -66.104)" fill="#fcb4d2"/></g><path d="M470.661,81.358c.113,0,10.678.721,17.246-4.535a3.511,3.511,0,0,1,5.144.972c2.387,3.869,6.346,8.938,10.3,8.049,6.282-1.411-3.589-23.845-21.023-18.973S470.661,81.358,470.661,81.358Z" transform="translate(-417.95 -66.181)" fill="#ff5d00"/><path d="M533.954,134.448c-3.794-6.159-12.228-10.1-20.474-12.573a2.793,2.793,0,0,1,.89,2.228l-2.549,39.762c4.84,8.239,9.567,17.309,8.886,21.017-.672,3.653-6.428,12.633-11.518,20.039-4.236,6.162-8.012,11.236-8.012,11.236a29.4,29.4,0,0,1,9.151,11.9s4.4-2.37,10.32-6.153c6.717-4.295,15.384-10.409,21.774-16.945C554.44,192.666,542.559,148.416,533.954,134.448Z" transform="translate(-414.77 -60.547)" fill="#c9dfff"/><path d="M471.877,216.8h0s-5.056-4.859-7.667-7.379c.014.007.032.012.046.018s-2.088-2.006-2.088-2,.005.013.007.02c-1.388-1.34-2.755-2.665-4.082-3.952-3.749-3.639-7.147-6.963-9.534-9.349,0,0-1.426-2.656,1.246-7.479a65.771,65.771,0,0,1,8.569-11.891c1.143-25.659-2.2-44.7-1.362-51.13-9.474,4.586-11.643,8.008-13.647,10.613-2.285,2.97-27.42,52.409-18.9,66.95,4.872,8.317,10.689,16.565,20.411,23.813,7.274,5.424,16.732,5.251,29.631,9.164,0,0,2.585-10.178,9.3-11.009C483.806,223.185,478.53,223.189,471.877,216.8Z" transform="translate(-422.708 -60.367)" fill="#c9dfff"/><path d="M424.672,174.476c-2.232,8.968-2.894,17.018-.209,21.6a93.355,93.355,0,0,0,8.827,12.815C444.015,195.717,430.061,179.8,424.672,174.476Z" transform="translate(-422.708 -55.226)" fill="#b6d7ff"/><path d="M543.841,171.957c-6.029,3.83-16.27,13.574-10.83,33.724a84.765,84.765,0,0,0,6.347-5.79C544.425,194.708,545.235,183.839,543.841,171.957Z" transform="translate(-411.706 -55.481)" fill="#b6d7ff"/><path d="M522.692,174.9c-.177-5.242-4.976-7.131-6.22-14.1a14.4,14.4,0,0,0-5.072-8.667l-.556,8.667c4.84,8.239,9.567,17.309,8.886,21.017C519.729,181.82,522.87,180.141,522.692,174.9Z" transform="translate(-413.793 -57.486)" fill="#b6d7ff"/><path d="M447.775,183.571a65.771,65.771,0,0,1,8.569-11.891c.275-6.191.286-11.986.162-17.323a35.623,35.623,0,0,0-6.727,13.654c-3.022,11.731-7.642,12.264-6.932,15.818.565,2.822.58,4.3,3.4,6.3C446.034,188.973,446.017,186.746,447.775,183.571Z" transform="translate(-420.678 -57.262)" fill="#b6d7ff"/><path d="M474.335,122.55a1.656,1.656,0,0,0-.089.956,1.538,1.538,0,0,0,.691.739c5.71,3.76,13.049,3.617,19.88,3.341,1.042-.042,2.251-.176,2.8-1.059a3.239,3.239,0,0,0,.347-1.619l.36-9.627a3.382,3.382,0,0,0-.325-1.968,2.5,2.5,0,0,0-3.176-.514,21.053,21.053,0,0,0-2.8,2.13c-1.493,1.081-3.628,1.539-5.175.534-.937-.609-1.522-1.654-2.456-2.268-1.492-.981-3.077-.483-4.71-.613-1.123-.089-2.656-1.149-3.466-.7C474.562,112.8,474.882,120.686,474.335,122.55Z" transform="translate(-417.499 -61.57)" fill="#b6d7ff"/></g><path d="M436.483,143.429" transform="translate(-394.107 -53.926)" fill="#c9dfff"/><g transform="translate(40.154 107.419)"><path d="M539.649,169.772,528.759,159.7s-25.59-.272-40.289,11.433a36.269,36.269,0,0,0-24.609-9.645H448.537l-9.42,6.531.5,8.666,96.607,7.787Z" transform="translate(-433.994 -159.7)" fill="#fff"/><path d="M439.117,167.255l.5,8.666h39.706l-1.69-2.435S480.9,168.365,439.117,167.255Z" transform="translate(-433.994 -158.935)" fill="#e6e6e6"/><path d="M485.489,223.528l-.927-.03-46.238-1.7-.977-13.26L436.208,193l-1.743-23.648,5.26.171,35.134,1.169h.01l7.506.252.484,8.212Z" transform="translate(-434.465 -158.723)" fill="#6478ff"/><path d="M538.5,220.282l-46.54,6.529-1.471-46.51-.161-4.927,44.142-6.489,2.126-.312.554,15L537.7,198.8Z" transform="translate(-428.814 -158.802)" fill="#6478ff"/><path d="M477.972,170.8a18.583,18.583,0,0,0,13.607,4.354l1.632,51.432c-9.575.976-13.045-3.2-13.045-3.2Z" transform="translate(-430.064 -158.577)" fill="#415bd8"/></g><path d="M536.631,201.629a4.18,4.18,0,0,1-1.62,3.5,8.144,8.144,0,0,0-1.552,1.571c-3.244,4.212-12.615-4.353-16.1-7.164s1.512-7.859,5.865-10.246a11.886,11.886,0,0,1,1.581-.726,8.535,8.535,0,0,1,5.411-.221c1.027.241,2.076.574,3.244.806.082.015.161.031.239.044a3.093,3.093,0,0,1,2.587,2.939Z" transform="translate(-386.043 -49.417)" fill="#fcb4d2"/><path d="M456.192,209.355c-3.475,2.821-12.856,11.386-16.1,7.174a7.59,7.59,0,0,0-2.2-2,4.067,4.067,0,0,1-1.944-3.21c-.207-2.458-.515-6.251-.712-9.285a2.8,2.8,0,0,1,3.111-2.954,5.823,5.823,0,0,0,1.748-.1c3.5-.7,5.885-2.256,10.237.131S459.668,206.534,456.192,209.355Z" transform="translate(-394.234 -48.423)" fill="#fcb4d2"/><g transform="translate(13.459 171.212)"><path d="M582.93,231.635a18.16,18.16,0,0,0-3.965-6.64c-4.234-4.112-10.862-4.186-16.742-3.684a213.152,213.152,0,0,0-23.131,3.385,29.424,29.424,0,0,1-8.633.872c-1.835-.188-2.2-7.936-2.2-7.936l-74.023,3.593s.589,2.565,0,3.048c-4.668,3.835-11.871-2.256-17.833-3.233-4.149-.679-8.371-1.313-12.544-.8s-8.359,2.332-10.86,5.713-3.253,9.332-2.489,13.466c1.979,10.705,14.815,20.926,25.01,24.75,74.191,27.821,99.571-15.774,117.248-16.9,8.727-.556,17.766-.916,25.6-4.8,2.429-1.2,4.892-3.011,5.418-5.67A9.48,9.48,0,0,0,582.93,231.635Z" transform="translate(-410.223 -217.632)" fill="#022b66"/><path d="M453.738,225.33c15.715-3.611,32.213,1.427,48.221-.511,6.989-.846,14.306-2.979,20.857-.4" transform="translate(-405.821 -217.07)" fill="none" stroke="#ffb000" stroke-linejoin="round" stroke-width="0.458" stroke-dasharray="1.83"/><path d="M485.607,225.416a235.524,235.524,0,0,1,.135,24.084" transform="translate(-402.597 -216.845)" fill="none" stroke="#ffb000" stroke-linejoin="round" stroke-width="0.458" stroke-dasharray="1.83"/></g><g transform="translate(73.008 175.959)"><path d="M573.5,224.8c-6.884-6.38-22.694-.651-31.19,3.337-8.019,3.763-15.75,8.1-23.472,12.439L464.3,267.936s2.332,18.265,5.83,20.207,95.209-29.922,95.209-29.922S595.13,244.848,573.5,224.8Z" transform="translate(-464.301 -221.943)" fill="#00368b"/><path d="M470.388,284.242c32.533-10.23,62.98-19.839,94.744-32.254a38.092,38.092,0,0,0,8.947-4.463,13.274,13.274,0,0,0,5.479-8.108" transform="translate(-463.685 -220.175)" fill="none" stroke="#ffb000" stroke-linejoin="round" stroke-width="0.458" stroke-dasharray="1.83"/><path d="M496.413,237.423q7.938,6.939,15.879,13.877a23.731,23.731,0,0,0,6.974,4.758,18.16,18.16,0,0,0,7.185.882c7.589-.333,14.9-2.893,22.426-3.921s15.96-.208,21.405,5.088" transform="translate(-461.053 -220.377)" fill="none"/><path d="M552.125,252.094c-7.527,1.028-14.837,3.59-22.426,3.921a18.161,18.161,0,0,1-7.185-.882,23.71,23.71,0,0,1-6.974-4.758l-7.731-6.756L464.3,265.445s2.332,18.265,5.83,20.207,95.209-29.922,95.209-29.922a35.406,35.406,0,0,0,3.381-1.822C563.739,251.589,557.687,251.334,552.125,252.094Z" transform="translate(-464.301 -219.75)" fill="#022b66" opacity="0.37"/></g><g transform="translate(117.902 220.538)"><path d="M517.819,262.875a8.407,8.407,0,0,0-2.894-.445c-3.068.11-5.735,2.264-7.451,4.81a12.926,12.926,0,0,0-2.356,8.33c.693,7.159,7.186,8.2,13.47,8.193a32.366,32.366,0,0,0,1.664-8.142A24.994,24.994,0,0,0,517.819,262.875Z" transform="translate(-505.07 -262.426)" fill="#fcb4d2"/><g transform="translate(12.749 0.449)"><path d="M559.558,274.811c-1.993-3.944-6.033-6.568-10.3-7.713s-8.777-.972-13.172-.5c-3.907.421-7.96,1.06-11.689-.183-2.682-.894-5.117-2.733-7.748-3.583a25,25,0,0,1,2.434,12.746,32.369,32.369,0,0,1-1.664,8.142c2.694,0,5.349-.192,7.492-.174,9.148.072,18.181,3.59,27.258,2.435,3.2-.406,6.684-1.71,7.953-4.671A7.836,7.836,0,0,0,559.558,274.811Z" transform="translate(-516.648 -262.834)" fill="#d38c0d"/><path d="M557.539,274.5c-1.993-3.944-6.033-6.568-10.3-7.713a31.2,31.2,0,0,0-10.026-.77,28.539,28.539,0,0,0,2.882,19.428,39.081,39.081,0,0,0,10.056.226c3.2-.406,6.684-1.71,7.952-4.671A7.836,7.836,0,0,0,557.539,274.5Z" transform="translate(-514.629 -262.521)" fill="#ffb000"/></g></g><g transform="translate(12.937 174.495)"><path d="M417.622,223.472c6.884-6.38,22.694-.651,31.19,3.336,8.019,3.763,15.75,8.1,23.472,12.439l51.784,25.69s-2.831,19.574-6.328,21.518-91.958-29.563-91.958-29.563S395.992,243.518,417.622,223.472Z" transform="translate(-409.748 -220.613)" fill="#00368b"/><path d="M410.071,233.669c2.946,5.664,5.994,11.464,10.773,15.7,5.533,4.9,12.825,7.217,19.885,9.406l26.795,8.306,48.514,15.562" transform="translate(-409.715 -219.292)" fill="none" stroke="#ffb000" stroke-linejoin="round" stroke-width="0.458" stroke-dasharray="1.83"/></g></svg>