<svg xmlns="http://www.w3.org/2000/svg" width="354.69" height="223.63" viewBox="0 0 354.69 223.63"><path d="M759.69,434.763c0,9.632-79.4,17.441-177.345,17.441S405,444.4,405,434.763s79.4-17.442,177.344-17.442S759.69,425.13,759.69,434.763Z" transform="translate(-405 -228.574)" fill="#1b73f0" opacity="0.2"/><g transform="translate(21.106)"><path d="M691.023,431.842l-31.906,3.6a205.824,205.824,0,0,1-26.266,1.254c-21.8-.368-51.931-7.393-61.9-5.2C530.383,440.4,453.811,438.6,453.811,438.6l1.587-13.561,1.122-9.638s10.458-.462,24.586-1.268c25.768-1.46,63.729-4.057,72.689-7,2.349-.769,6.826-1.925,12.651-3.31,28.519-6.789,89.227-19.128,89.227-19.128Z" transform="translate(-421.169 -231.875)" fill="#2e53bc"/><path d="M566.4,402.069c-2.191,1.593-4.777,2.885-6.347,3.9-5.012,3.21-10.06,6.426-15.576,8.665-5.952,2.415-12.331,3.626-18.276,6.07-5.618,2.3-10.755,5.653-16.437,7.774-6.257,2.344-12.986,3.111-19.647,3.607a260.938,260.938,0,0,1-34.657.251c-.371-.019-.76-.057-1.147-.114l1.039-8.943c6.1-3.934,13.027-6.5,19.9-8.9,1.936-.681,3.87-1.342,5.8-2.005,25.768-1.46,63.729-4.057,72.689-7C556.093,404.611,560.57,403.454,566.4,402.069Z" transform="translate(-421.118 -230.117)" fill="#284c8c"/><path d="M649.984,344.608c.381,6.7-2.864,13.1-6.878,18.477s-8.875,10.113-12.53,15.74c-1.327,2.042-2.459,4.833-.97,6.759a5,5,0,0,0,3.057,1.621c4.431.883,8.935-.965,12.887-3.155,9.858-5.466,18.447-13.506,23.6-23.529a30.913,30.913,0,0,0,3.856-14.8c-.141-5.149-2.242-10.388-6.285-13.581-3.627-2.863-10.505-4.212-14.751-1.742C646.973,333.311,649.721,340.006,649.984,344.608Z" transform="translate(-403.456 -237.498)" fill="#ff9700"/><path d="M656.416,346.255c-2.622,5.613-2.392,12.231-5.012,17.843-3.2,6.861-10.174,11.235-14.07,17.729a10.758,10.758,0,0,0-1.76,5.157,5.273,5.273,0,0,0,2.342,4.7,6.864,6.864,0,0,0,3.382.738c6.853.1,13.321-3.258,18.736-7.458,11.246-8.721,19.376-21.851,20.548-36.036.4-4.782-.9-17.016-7.908-16.871C666.821,332.177,658.658,341.457,656.416,346.255Z" transform="translate(-402.781 -237.2)" fill="#d38c0d" opacity="0.22"/><path d="M666.49,388.487s-70.4-33.822-83.292-32.757-101.58,54.08-101.58,54.08l18.828,15.37S559.889,404.3,580.212,398.7c17.018-4.687,86.276,34.318,101.683,35.993s41.572-9.767,41.572-9.767Z" transform="translate(-418.356 -234.808)" fill="#6478ff"/><g transform="translate(192.333 60.076)"><g transform="translate(0 68.609)"><path d="M609.451,364.887l-7.8-2.032a2.256,2.256,0,0,0-2.447,3.426,33.962,33.962,0,0,0,7.289,7.526c10.952,8.883,23.426,16.064,36.982,19.942,2.467.706,1.288-13.131.972-14.253-.969-3.437-2.63-8.574-6.169-10.2-3.163-1.451-7.933-.492-11.3-.823A113.942,113.942,0,0,1,609.451,364.887Z" transform="translate(-598.831 -362.778)" fill="#ffb000"/><g transform="translate(21.595 5.37)" opacity="0.54"><path d="M618.444,374.508a85.383,85.383,0,0,0,13-6.532c-2.238-.026-4.565.193-6.453.008-.9-.087-1.8-.2-2.689-.329C620.217,369.467,618.389,371.791,618.444,374.508Z" transform="translate(-618.443 -367.654)" fill="#d38c0d" opacity="0.22"/><path d="M641.959,378.953c-.969-3.437-2.63-8.574-6.169-10.2a8.366,8.366,0,0,0-2.083-.611c-2.058,3.664-4.441,7.154-7.919,9.426-1.09.711-2.436,1.581-2.33,2.88.085,1.043,1.09,1.724,1.686,2.586a4.927,4.927,0,0,1,.431,4.178,92.593,92.593,0,0,0,15.413,5.993C643.454,393.912,642.275,380.075,641.959,378.953Z" transform="translate(-617.936 -367.604)" fill="#d38c0d" opacity="0.22"/></g></g><g transform="translate(9.473)"><path d="M722.945,326.491c2.185,11.532.384,23.421-1.82,34.95s-4.828,23.139-4.27,34.864c.209,4.415.87,8.82.64,13.234a42.308,42.308,0,0,1-2.917,12.83c-2.7,7.05-7.079,13.872-13.81,17.286a33.468,33.468,0,0,1-8.562,2.718,85.831,85.831,0,0,1-64.592-13.06c-5.417-3.7-10.666-8.128-16.328-11.36a7.548,7.548,0,0,1-.162-13.069,115.7,115.7,0,0,1,26.7-11.672c4.282-1.256,8.732-2.306,12.44-4.79,8.233-5.518,10.627-16.379,12.043-26.188s3.014-20.6,10.509-27.089c3.464-3,24.055-31.118,27.951-33.538,4.172-2.592,6.905-.347,10.32,2.718C717.437,310.02,721.372,318.192,722.945,326.491Z" transform="translate(-607.434 -300.471)" fill="#ffb000"/><path d="M692.873,414.818c-1.457,2.144-2.845,4.7-5.34,5.409-3.331.947-6.88-1.962-10.2-.961-1.944.587-3.273,2.38-5.081,3.3-2.85,1.456-6.4.546-9.394,1.665-3.41,1.272-5.074,4.562-5.881,8.262a84.668,84.668,0,0,0,30.211-.525,33.465,33.465,0,0,0,8.561-2.718c6.73-3.414,11.114-10.236,13.81-17.286A46.533,46.533,0,0,0,712,403.3c-.982.173-1.955.345-2.886.547A26.737,26.737,0,0,0,692.873,414.818Z" transform="translate(-602.422 -290.069)" fill="#d38c0d" opacity="0.22"/></g><path d="M610.935,413.348c11.1-8.182,25.887-9.69,37.536-17.068a43.275,43.275,0,0,0,18.9-27.009c.941-4.321,1.221-8.815,2.786-12.951,2.251-5.952,6.924-10.591,10.8-15.641A67.378,67.378,0,0,0,691.3,321.263c1.957-5.8,3.279-12.15,7.524-16.561" transform="translate(-597.607 -300.043)" fill="none" stroke="#ff9700" stroke-miterlimit="10" stroke-width="0.824"/><path d="M697.031,307.759c-3.716,2.425-5.9,6.574-7.646,10.655a116.586,116.586,0,0,0-7.127,23.846c-.847,4.4-1.5,8.881-3.056,13.085s-4.156,8.2-8.022,10.472c-4.7,2.765-10.579,2.616-15.908,1.463a12.959,12.959,0,0,0-3.735-.483c-4.377.349-6.835,5.91-5.387,10.055s5.48,6.837,9.562,8.454a35.661,35.661,0,0,0,22.831,1.09,23.676,23.676,0,0,0,10.729-6.1c2.751-2.9,4.426-6.64,6.049-10.3l12.268-27.634c2.412-5.433,4.852-10.962,5.618-16.858C714.356,316.66,708.722,300.134,697.031,307.759Z" transform="translate(-594.087 -299.932)" fill="#d38c0d" opacity="0.22"/></g><path d="M638.25,362.922s-2.478-1.4-6.327-6.77-7.536-7.041-10.186-10-6.511-7.228-5.8-3.2,5.51,8.392,2.082,7.992S603.5,339.736,601.436,340.21c-2.667.613,8.39,14.314,16.327,23.216s8.046,8.545,16.535,12.459S659.692,368.813,638.25,362.922Z" transform="translate(-406.276 -236.377)" fill="#fcb4d2"/><path d="M642.581,265.452c-.311,2.181,0,4.5-.9,6.514-1.278,2.853-4.821,4.68-4.9,7.807-.083,3.383,3.925,5.358,5.154,8.512,1.738,4.459-2.57,9.179-2.113,13.943.21,2.2,1.417,4.152,2.592,6.02.225.358.5.75.918.814a1.478,1.478,0,0,0,1.142-.554c2.083-1.974,4.08-4.279,6.835-5.086,2.269-.664,4.691-.2,7.054-.1s5.016-.341,6.437-2.231c1.136-1.512,1.184-3.555,1.133-5.445q-.089-3.409-.4-6.808a26.625,26.625,0,0,0-1.547-7.618,30.447,30.447,0,0,0-4.877-7.439l-7.177-8.907C649,261.23,643.521,258.858,642.581,265.452Z" transform="translate(-402.659 -244.358)" fill="#6478ff"/><g transform="translate(244.562 12.621)"><path d="M659.081,292.528s8.015,7.184,7.172,14.693c-1.247,11.1,20.32-6.745,20.32-6.745l-16.458-20.053Z" transform="translate(-644.965 -255.044)" fill="#fcb4d2"/><path d="M663.623,297.471s5.754-.912,8.686-4.891c0,0,.137,4.744-6.828,9.413Z" transform="translate(-644.505 -253.815)" fill="#fc86bc"/><path d="M659.423,259.013s-12.635,3.873-13.139,12.286,7.6,32,17.018,30.655,13.313-8.617,16.828-13.963C694.856,265.6,669.951,252.6,659.423,259.013Z" transform="translate(-646.262 -257.376)" fill="#fcb4d2"/></g><g transform="translate(236.561 52.235)"><path d="M643.757,354.223c.336.95.835,2.046,1.827,2.222a2.525,2.525,0,0,0,2.073-.924c2.014-1.989,3.044-4.868,5.266-6.621a17.537,17.537,0,0,1,4.112-2.108,44.1,44.1,0,0,0,18.273-14.571,37.227,37.227,0,0,1,4.1-5.265,45.54,45.54,0,0,1,5.094-3.758,30.992,30.992,0,0,0,10.88-14.266,9.809,9.809,0,0,0,.744-5.387,7.383,7.383,0,0,0-5.771-5.264,14.317,14.317,0,0,0-8.078,1c-4.5,1.73-8.595,4.65-13.346,5.479-5.206.91-10.907-.75-15.649,1.582-6.6,3.245-11.226,14.894-13.326,21.629C637.234,336.723,640.861,346.027,643.757,354.223Z" transform="translate(-638.996 -292.875)" fill="#02132b"/><path d="M668.728,304.338c2.454-.989,4.5-2.757,6.661-4.28a38.3,38.3,0,0,1,16.469-6.551c3.518-.511,8.065.115,9.105,3.514.576,1.88-.237,3.912-1.339,5.539-2.323,3.427-5.889,5.813-8.512,9.016a85.367,85.367,0,0,0-4.93,7.569,40.164,40.164,0,0,1-20.847,16c-4.836,1.592-10.182,2.227-15,.56s-8.9-6.013-9.165-11.1c-.176-3.427,1.316-6.7,2.875-9.756,1.642-3.216,3.462-6.457,6.251-8.751C656.769,300.778,662.2,306.967,668.728,304.338Z" transform="translate(-638.778 -293.35)" fill="#042956"/></g><g transform="translate(218.004 64.894)"><path d="M711.775,389.647c-3.926,4.339-8.322,8.453-13.7,10.762-6.293,2.7-13.365,2.7-20.215,2.5-19.409-.569-39.77-2.769-55.712-13.864a107.344,107.344,0,0,1,10.94-22.721,3.777,3.777,0,0,1,1.6-1.633,3.85,3.85,0,0,1,2.614.246q4.529,1.5,9.136,2.731,6.775,1.827,13.691,3.051,5.282.917,10.626,1.51c2.593.282,5.31.488,7.74-.449,4.907-1.9,6.8-7.378,7.827-12.74.2-1.026.361-2.036.5-3.028.156-1.072.322-2.146.5-3.209q1.99-12.793,4.972-25.387c1.541-6.527,3.47-13.359,8.312-18.005,7.674-7.378,13-6.282,20.492,6.834C727.349,327.187,722.2,378.114,711.775,389.647Z" transform="translate(-622.144 -304.847)" fill="#ff9700"/><path d="M689.705,365.056c-2.794,3.216-6.514,5.549-9.171,8.882-1.721,2.164-3.087,4.81-5.575,6.007-3.179,1.524-6.913.111-10.137-1.33-7.317-3.273-14.86-6.93-19.687-13.335a3.88,3.88,0,0,1-.93-2.021q6.776,1.827,13.691,3.051,5.282.917,10.626,1.51c2.593.282,5.31.488,7.74-.449,4.907-1.9,6.8-7.378,7.827-12.74.2-1.026.361-2.036.5-3.028.156-1.073.321-2.146.5-3.209C692.2,349.473,695.758,358.1,689.705,365.056Z" transform="translate(-619.912 -300.441)" fill="#d38c0d" opacity="0.15"/></g><path d="M459.232,404.348c-3.353-1.716-5.609-5.309-9.2-6.447a3.5,3.5,0,0,0-2.377-.059c-1.582.657-1.839,2.772-1.708,4.48a31.385,31.385,0,0,0,22.063,27.05c2.569.738,6.282-1.005,7.409,1.418.617,1.328-5.369,7.911-4.5,9.09,1.709,2.326,10.559-1.439,13.061-2.878l8.263-4.753c1.341-.772,10.571-7.841,11.436-9.124a8.044,8.044,0,0,0,.866-5.721c-.69-4.5-3.034-8.548-5.332-12.477-2.778-4.748-5.682-7.624-11.872-4.755C481.317,402.964,471.871,410.813,459.232,404.348Z" transform="translate(-421.967 -230.564)" fill="#02132b"/><path d="M443.094,404.45a34.555,34.555,0,0,1-8.657-15.977c-.412-1.642-.949-3.577-2.546-4.138a3.288,3.288,0,0,0-3.46,1.22,9,9,0,0,0-1.526,3.562,86.852,86.852,0,0,0-2.736,21.25,18.578,18.578,0,0,0,.978,7.035c2.118,5.276,8.189,8.108,10.436,13.331a5.805,5.805,0,0,1,.535,3.185c-.315,1.95-6.714,3.746-6.359,5.691.42,2.3,7.974,2.927,10.309,3.046a70.341,70.341,0,0,0,14.567-.771c2.388-.378,4.973-1.01,6.425-2.943,1.255-1.672,1.354-3.912,1.4-6,.109-4.669,1.81-17.625-2.776-20.559-1.959-1.252-5.441-1.062-7.67-1.958A26.677,26.677,0,0,1,443.094,404.45Z" transform="translate(-424.167 -231.925)" fill="#02132b"/><g transform="translate(175.6 77.764)"><path d="M583.928,319.046l3.12-2.511,9.988,12.085,24.587-6.917.176,4.329-27.171,6.486Z" transform="translate(-583.606 -316.534)" fill="#fff"/><path d="M596.868,330.293l23.622-5.134,34.456,31.288L630.8,362.5Z" transform="translate(-582.297 -315.662)" fill="#ff5d00"/><line x2="12.258" y2="14.562" transform="translate(0 2.652)" fill="none" stroke="#ff5d00" stroke-miterlimit="10" stroke-width="1.648"/><path d="M597.392,329.822a5.179,5.179,0,0,1-5.7.624l36.67,33.268,2.97-1.688Z" transform="translate(-582.821 -315.19)" fill="#dd4d05"/><path d="M618.16,321.228l35,31.586-.363,4.031-34.456-31.288Z" transform="translate(-580.143 -316.059)" fill="#f2f2f2"/></g><g transform="translate(243.547)"><path d="M653.751,264.988c2.9.562,4.783,1.49,5.9,4.225.965,2.373,1.06,5.205,2.807,7.08,3.157,3.392,9.833,1.7,12.364,5.578,1.346,2.062.809,4.818-.137,7.091s-2.273,4.478-2.407,6.938c-.181,3.311,1.844,6.336,4.11,8.759.458.489,1.114,1.008,1.727.737a1.886,1.886,0,0,0,.738-.84c2.053-3.407,6.421-4.757,10.4-4.59,3.055.129,6.673.777,8.7-1.514,1.517-1.718,1.352-4.361,2.49-6.35,2.021-3.536,7.18-3.752,10.055-6.637a2.519,2.519,0,0,0,.9-1.927c-.172-1.611-2.373-1.811-3.976-2.046a8.381,8.381,0,0,1-6.934-7.561c-.095-1.615.29-3.274-.131-4.836-.894-3.326-4.822-4.679-7.136-7.23-2.116-2.333-22.92-29.818-43.976-6.865-1.625,1.772-4.264,6.2-3.843,8.769C645.914,267,650.716,264.4,653.751,264.988Z" transform="translate(-645.34 -245.914)" fill="#6478ff"/><path d="M664.381,274.077s.051-7.659,6.653-9.043,8.8,9.93,2.01,18.187S664.381,274.077,664.381,274.077Z" transform="translate(-643.414 -243.992)" fill="#fcb4d2"/></g></g></svg>