<svg xmlns="http://www.w3.org/2000/svg" width="172.592" height="466.893" viewBox="0 0 172.592 466.893"><g transform="translate(0 0)"><path d="M205.163,440.27c0,10.643-34.51,19.27-77.081,19.27S51,450.913,51,440.27,85.51,421,128.081,421,205.163,429.628,205.163,440.27Z" transform="translate(-51 7.352)" fill="#1b73f0" opacity="0.2"/><g transform="translate(11.754 187.517)"><path d="M172.777,314.671c-2.764,30.741,3.2,88.754-2.838,121.72,0,0-7.569,3.5-18.542,1.567s-15.269-98.316-16.679-114.169-7.04-49.135-8.821-56.954c-1.345-5.909.65-17.1-1.011-22.207a3.364,3.364,0,0,0-5.974-.881c-2.625,4.026-.732,14.34-1.15,39.544-.6,36.361-6.41,55.025-10.834,73.28s-14.3,62.136-18.106,72.275c0,0-11.53,7.128-22.754.384,0,0,4.739-60.044,7.4-82.724s6.512-43.968,6.456-67.335c-.019-7.532-.575-16.038-1.271-24.628-1.2-14.628-2.793-29.479-2.811-40.045a65.649,65.649,0,0,1,.27-6.66c1.493-15.148,86.546,5.514,86.546,5.514C162.919,219.327,175.542,283.931,172.777,314.671Z" transform="translate(-61.23 -202.29)" fill="#1b73f0"/><path d="M146.73,245.166c-16.018-8.978-45.029-24.3-60.735-19.2A34.473,34.473,0,0,1,75.5,227.529c-.544-7.831-.784-14.724-.293-19.7,1.5-15.146,86.7,6.535,86.7,6.535.085,1.967,3.7,23.957,5.1,32.94C163.176,249.231,157.846,251.4,146.73,245.166Z" transform="translate(-60.332 -202.274)" fill="#0a3e89" opacity="0.34"/><path d="M145.606,305.107c2.174-15.642,12.5-18.756,19.438-19.309a157.949,157.949,0,0,1-.285,20.428,317.556,317.556,0,0,0-.685,31.928C156.812,333.719,143.2,322.412,145.606,305.107Z" transform="translate(-53.212 -193.842)" fill="#0a3e89" opacity="0.34"/><path d="M89.251,311.369c1.624-18.192,17.993-23.839,25.831-25.731a251.221,251.221,0,0,1-8.067,52.783C101.964,336.868,87.474,331.276,89.251,311.369Z" transform="translate(-58.9 -193.858)" fill="#0a3e89" opacity="0.34"/><path d="M167.274,390.241s2.309-4.227-3.281-1.722-27.426,3.317-28.437,4.524-3.007,1.383-1.219,3.908,2.307,4.861,3.33,10.621-2.536,13.9-1.314,18.708-4.2,11.771.048,14.3,9.447,3.189,12.969,5.114,18.294,4.644,29,4.368,15.833-2.963,9.758-8.462-8.586-8.63-14.366-10.8-6.938-8.218-6.925-13.751-.856-4.339-.014-10S167.274,390.241,167.274,390.241Z" transform="translate(-54.396 -183.531)" fill="#001a49"/><path d="M66.3,382.868s-1.958-3.756,5.416-1.067,27.18,1.239,26.235,4.268-.516,9.809-2.474,12.328.382,4.42-1.118,9.231-2.764,12.628-.5,16.657,9.6,16.872,10.85,23.519-7.285,10.828-18.559,1.839S74.942,437.937,71.087,434s-9.613-5.538-9.407-13.1-.041-11.156,1.169-15.666,3.5-8.1,2.653-12.272S66.3,382.868,66.3,382.868Z" transform="translate(-61.674 -184.228)" fill="#001a49"/><path d="M98.3,230.737a94.31,94.31,0,0,1-11.475,15.37,32.215,32.215,0,0,1-9.071,7.393c-1.2-14.628-2.793-29.479-2.811-40.045a.293.293,0,0,1,.047-.055,3.262,3.262,0,0,1,2.152-.677,50.772,50.772,0,0,1,15.286,1.336c3.107.761,6.429,2.032,7.959,4.852C102.394,222.6,100.463,227.138,98.3,230.737Z" transform="translate(-60.332 -201.245)" fill="#0a3e89" opacity="0.34"/></g><path d="M169.838,174.707a11.742,11.742,0,0,1-7.262,1.614,13.65,13.65,0,0,1-1.865-.241,42.113,42.113,0,0,1-8.886-3.154c-3.479-1.512-7.207-3.116-9.239-6.307a17.038,17.038,0,0,1-2-5.621,119.752,119.752,0,0,1-2.551-18.06c-.176-2.793-.222-5.743,1.057-8.228,2.839-5.51,10.557-5.714,14.648-1.447,3.626,3.785,2.968,12.522,3.59,17.355a12.3,12.3,0,0,0,.352,1.938,4.4,4.4,0,0,0,.64,1.392,7.3,7.3,0,0,0,1.994,1.726q3.673,2.448,7.337,4.907c2.329,1.558,4.824,3.33,5.621,6.011C174.17,169.615,172.492,173,169.838,174.707Z" transform="translate(-42.205 -22.056)" fill="#ff8bb7"/><path d="M168.052,172.662a11.742,11.742,0,0,1-7.262,1.614c-1.225-5.676-3.145-11.131-4.518-16.779a16.925,16.925,0,0,1-.6-5.854,7.819,7.819,0,0,1,.222-1.132,4.4,4.4,0,0,0,.64,1.392,7.294,7.294,0,0,0,1.994,1.726q3.673,2.448,7.337,4.907c2.329,1.558,4.824,3.33,5.621,6.011C172.384,167.57,170.706,170.956,168.052,172.662Z" transform="translate(-40.418 -20.011)" fill="#f268a0"/><path d="M152.818,134.564c.77,23.448,11.092,94.679,11.092,94.679-29.215,24.6-89.872,10.4-89.872,10.4l-.406-76.247,10.729-72.9c8.07-4.237,48.086-.521,48.086-.521s16.82-.374,22.468,6.619c8.252,10.215,9.437,46.428,9.437,46.428s-5.381,5.381-12.3,3.076" transform="translate(-48.711 -26.288)" fill="#c9dfff"/><path d="M149.816,120.406l.449,10.8a6.125,6.125,0,0,1-1.025,3.655l-.523.784a4.5,4.5,0,0,0-.754,2.677h0a7.171,7.171,0,0,1-1.427,4.587l-.394.526" transform="translate(-41.375 -23.056)" fill="#b6d7ff"/><path d="M68.427,181.428c1.152,2.764,2.559,5.623,5.087,7.227a10.1,10.1,0,0,0,8.208.837,19.985,19.985,0,0,0,7.245-4.334c11.884-10.358,16.531-26.541,25.09-39.778,3.415-5.281,7.472-10.112,11.184-15.188,2.068-2.829,4.086-5.884,4.514-9.362s-1.243-7.458-4.573-8.551c-1.307-.428-3.077-.685-3.323-2.038a2.182,2.182,0,0,1,.335-1.444c.812-1.42,2.341-2.249,3.533-3.373s2.069-2.993,1.165-4.358a2.974,2.974,0,0,0-3.319-.939,8.177,8.177,0,0,0-3.045,2.038c-5.39,5.007-10.337,11.156-11.244,18.455-.3,2.4-.154,4.888-.971,7.162a17.79,17.79,0,0,1-3.376,5.175c-6.512,7.817-13.065,15.675-20.79,22.3a59.879,59.879,0,0,0,.928-16.392c-.265-3.265-.9-6.714-3.111-9.126-3.192-3.476-9-3.62-12.994-1.1-7.86,4.966-7.99,15.771-7.618,24.024C61.792,162.412,64.694,172.47,68.427,181.428Z" transform="translate(-49.964 -25.123)" fill="#ff8bb7"/><path d="M100.911,88.533s-35.065-1.27-37.671,25.014c-1.541,15.539-5.832,39.535-4.113,43.662,0,0,18.841-2.918,30.32-6.531,0,0,.366-14.021-2.025-19.55" transform="translate(-50.218 -26.282)" fill="#c9dfff"/><path d="M77.31,104.886c4.074,5.879,8.307,12.233,8.393,19.385a39.588,39.588,0,0,0,.037,4.293c.271,2.234,1.327,4.289,1.957,6.451,1.124,3.864.867,7.977.6,11.992a2.618,2.618,0,0,1-2.425,2.913" transform="translate(-48.338 -24.626)" fill="#b6d7ff"/><g transform="translate(53.825)"><path d="M148.828,51.069c.131,1.133-.007,21.431-4.739,28.485s-8.711,9.045-17.2,6.775l-.755,11.96s-5.026,9.457-16.955,4.45a16.014,16.014,0,0,1-9.3-10.03l14.666-46.856Z" transform="translate(-99.88 -30.598)" fill="#ff8bb7"/><path d="M103.205,78.221c.182,1.417,8.153.335,12.2-2.861s5.069-2.6,4.928-4.85-2.152-1.064-3.412-4.736-.814-9.094,3.928-8.331,4.445,4.378,6.65,2.81.74-7.007,2.806-7.722,3.436-4.336,11.5.339,14.731,9.751,16.156,3.5-5.161-6.444-.5-8.475.3-7.73-8.392-7.559-18.165-13.7-33.026-6.013S99.4,48.471,103.205,78.221Z" transform="translate(-99.718 -32)" fill="#001a49"/><path d="M125.457,83.066a19.8,19.8,0,0,1-9.876-4.189c-4.172-3.307.962,5.146,4.081,6.74a26.585,26.585,0,0,1,5.32,3.62Z" transform="translate(-98.45 -27.334)" fill="#f268a0"/><path d="M126.618,59.966s-2.843-7.11-9.5-5.989-4.564,12.456,4.77,17.665S126.618,59.966,126.618,59.966Z" transform="translate(-98.529 -29.789)" fill="#ff8bb7"/></g><g transform="translate(49.507 55.887)"><path d="M101.885,82.753c-1.668.32-4.613,4.045-5.15,7.133l-.723,4.155a3.579,3.579,0,0,0,1,3.144l.717.716a4.234,4.234,0,0,1,.553.684L105.164,104l3.974-1.325a5.343,5.343,0,0,1,1.516-.272l4.916-.159a.266.266,0,0,0,.059-.523C103.285,98.451,101.1,89.812,101.1,89.812S102.4,82.653,101.885,82.753Z" transform="translate(-95.959 -82.752)" fill="#b6d7ff"/><path d="M116.826,101.565a.324.324,0,0,0,.4.482,29.224,29.224,0,0,0,8.859-6.674,5.778,5.778,0,0,0,1.757-3.272,3.912,3.912,0,0,0-.192-1.262c-.532-2.187-.71-4.1-2.56-5.366-.252,1.86.305,7.13-3.874,10.338C119.312,97.276,118.264,99.639,116.826,101.565Z" transform="translate(-93.855 -82.477)" fill="#b6d7ff"/></g><g transform="translate(101.721 98.184)"><path d="M212.962,149.019l-4.669-27.4-52.215,21.5.478,11.516Z" transform="translate(-142.091 -121.118)" fill="#606060"/><path d="M211.246,147.986l-4.95-26.822-49.2,20.173,1.245,12.5Z" transform="translate(-141.989 -121.164)" fill="#fff"/><path d="M205.04,152.076l9.207-4.537s-17.686-11.929-18.886-11.265-51.985,23.341-51.985,23.341l20.885,11.333Z" transform="translate(-143.376 -119.638)" fill="#6478ff"/></g><path d="M181.054,160.708a5.565,5.565,0,0,1,2.475.573,1.958,1.958,0,0,1,1,2.149c-.367,1.123-1.829,1.337-2.818,1.983a6.828,6.828,0,0,0-2.181,3.423c-1.259,3.152-3.114,6.365-6.226,7.718a11.671,11.671,0,0,1-5,.772c-2.637-.075-5.6-.823-6.877-3.131a2.443,2.443,0,0,1-.244-2.148,2.573,2.573,0,0,1,2.36-1.226c.935-.022,1.872.195,2.8.085a1.189,1.189,0,0,0,.659-.239c.422-.372.252-1.051.367-1.6.3-1.454,2.477-1.73,3.047-3.1.345-.828-.015-1.765-.009-2.663C170.447,158.534,178.309,160.518,181.054,160.708Z" transform="translate(-39.869 -19.037)" fill="#ff8bb7"/></g></svg>